<svg width="128" height="128" viewBox="0 0 128 128" fill="none" xmlns="http://www.w3.org/2000/svg">
<g clip-path="url(#clip0_616_548)">
<rect width="128" height="128" fill="white"/>
<rect x="84.0811" y="47.9423" width="8.45996" height="38.1815" transform="rotate(60.5401 84.0811 47.9423)" fill="#0C4A4A"/>
<path d="M47.85 77.5V87.04C47.85 87.34 48 87.49 48.3 87.49H51.9C52.2 87.49 52.35 87.34 52.35 87.04V70.84L45.24 67.69C44.7 67.51 43.95 67.21 42.99 66.79C42.03 66.31 41.16 65.62 40.38 64.72C39.66 63.82 39.3 62.59 39.3 61.03V40.51C39.3 37.99 40.08 35.98 41.64 34.48C43.2 32.92 45.24 32.14 47.76 32.14H52.44C54.96 32.14 57 32.92 58.56 34.48C60.12 35.98 60.9 37.99 60.9 40.51V53.83L52.35 53.11V40.96C52.35 40.66 52.2 40.51 51.9 40.51H48.3C48 40.51 47.85 40.66 47.85 40.96V59.77L54.96 62.92C55.5 63.16 56.25 63.49 57.21 63.91C58.17 64.33 59.01 64.99 59.73 65.89C60.51 66.79 60.9 68.02 60.9 69.58V87.49C60.9 90.01 60.12 92.05 58.56 93.61C57 95.11 54.96 95.86 52.44 95.86H47.76C45.24 95.86 43.2 95.11 41.64 93.61C40.08 92.05 39.3 90.01 39.3 87.49V77.5H47.85ZM88.3641 87.13C88.3641 89.65 87.5841 91.69 86.0241 93.25C84.4641 94.75 82.4241 95.5 79.9041 95.5H73.4241C70.9041 95.5 68.8641 94.75 67.3041 93.25C65.7441 91.69 64.9641 89.65 64.9641 87.13V40.87C64.9641 38.35 65.7441 36.34 67.3041 34.84C68.8641 33.28 70.9041 32.5 73.4241 32.5H79.9041C82.4241 32.5 84.4641 33.28 86.0241 34.84C87.5841 36.34 88.3641 38.35 88.3641 40.87V55.27H79.8141V41.32C79.8141 41.02 79.6641 40.87 79.3641 40.87H73.9641C73.6641 40.87 73.5141 41.02 73.5141 41.32V86.68C73.5141 86.98 73.6641 87.13 73.9641 87.13H79.3641C79.6641 87.13 79.8141 86.98 79.8141 86.68V68.05H76.3041L77.0241 59.68H88.3641V87.13Z" fill="black"/>
</g>
<defs>
<clipPath id="clip0_616_548">
<rect width="128" height="128" fill="white"/>
</clipPath>
</defs>
</svg>
