<svg width="153" height="122" viewBox="0 0 153 122" fill="none" xmlns="http://www.w3.org/2000/svg">
<g id="undraw_server_cluster_jwwq 1" clip-path="url(#clip0_75_199)">
<path id="Vector" d="M76.6504 103.456C66.3515 103.456 56.3712 99.9043 48.4101 93.4067C40.449 86.9091 34.9996 77.8673 32.9904 67.822C30.9812 57.7766 32.5366 47.3491 37.3914 38.3163C42.2463 29.2835 50.1003 22.2043 59.6152 18.2848C69.1302 14.3653 79.7173 13.8481 89.5727 16.8212C99.4281 19.7944 107.942 26.074 113.664 34.59C119.385 43.1061 121.961 53.3317 120.952 63.5246C119.942 73.7175 115.41 83.2469 108.128 90.4892C104.004 94.613 99.0981 97.8823 93.695 100.108C88.2919 102.334 82.4986 103.472 76.6504 103.456ZM76.6504 15.2551C52.2932 15.2551 32.4772 34.9621 32.4772 59.1853C32.4772 83.4084 52.2932 103.115 76.6504 103.115C101.007 103.115 120.824 83.4084 120.824 59.1853C120.824 34.9621 101.007 15.2551 76.6504 15.2551Z" fill="#CCCCCC"/>
<path id="Vector_2" d="M93.1794 110.095V65.4948H59.801V110.095H93.1794Z" fill="#2F2E41"/>
<path id="Vector_3" d="M98.9136 64.1329H54.0668V81.8368H98.9136V64.1329Z" fill="#3F3D56"/>
<path id="Vector_4" d="M98.9136 83.8794H54.0668V101.583H98.9136V83.8794Z" fill="#3F3D56"/>
<path id="Vector_5" d="M98.9136 103.626H54.0668V121.33H98.9136V103.626Z" fill="#3F3D56"/>
<path id="Vector_6" d="M98.9136 71.6394H54.0668V74.3631H98.9136V71.6394Z" fill="#0C4A4A"/>
<path id="Vector_7" d="M98.9136 91.386H54.0668V94.1097H98.9136V91.386Z" fill="#0C4A4A"/>
<path id="Vector_8" d="M98.9136 111.132H54.0668V113.856H98.9136V111.132Z" fill="#0C4A4A"/>
<path id="Vector_9" d="M90.1839 67.7077C90.7512 67.7077 91.211 67.2504 91.211 66.6863C91.211 66.1222 90.7512 65.6649 90.1839 65.6649C89.6167 65.6649 89.1569 66.1222 89.1569 66.6863C89.1569 67.2504 89.6167 67.7077 90.1839 67.7077Z" fill="#0C4A4A"/>
<path id="Vector_10" d="M93.7785 67.7077C94.3457 67.7077 94.8055 67.2504 94.8055 66.6863C94.8055 66.1222 94.3457 65.6649 93.7785 65.6649C93.2113 65.6649 92.7515 66.1222 92.7515 66.6863C92.7515 67.2504 93.2113 67.7077 93.7785 67.7077Z" fill="#0C4A4A"/>
<path id="Vector_11" d="M97.3731 67.7077C97.9403 67.7077 98.4002 67.2504 98.4002 66.6863C98.4002 66.1222 97.9403 65.6649 97.3731 65.6649C96.8059 65.6649 96.3461 66.1222 96.3461 66.6863C96.3461 67.2504 96.8059 67.7077 97.3731 67.7077Z" fill="#0C4A4A"/>
<path id="Vector_12" d="M90.1839 87.1138C90.7512 87.1138 91.211 86.6565 91.211 86.0924C91.211 85.5283 90.7512 85.071 90.1839 85.071C89.6167 85.071 89.1569 85.5283 89.1569 86.0924C89.1569 86.6565 89.6167 87.1138 90.1839 87.1138Z" fill="#0C4A4A"/>
<path id="Vector_13" d="M93.7785 87.1138C94.3457 87.1138 94.8055 86.6565 94.8055 86.0924C94.8055 85.5283 94.3457 85.071 93.7785 85.071C93.2113 85.071 92.7515 85.5283 92.7515 86.0924C92.7515 86.6565 93.2113 87.1138 93.7785 87.1138Z" fill="#0C4A4A"/>
<path id="Vector_14" d="M97.3731 87.1138C97.9403 87.1138 98.4002 86.6565 98.4002 86.0924C98.4002 85.5283 97.9403 85.071 97.3731 85.071C96.8059 85.071 96.3461 85.5283 96.3461 86.0924C96.3461 86.6565 96.8059 87.1138 97.3731 87.1138Z" fill="#0C4A4A"/>
<path id="Vector_15" d="M90.1839 106.52C90.7512 106.52 91.211 106.063 91.211 105.499C91.211 104.934 90.7512 104.477 90.1839 104.477C89.6167 104.477 89.1569 104.934 89.1569 105.499C89.1569 106.063 89.6167 106.52 90.1839 106.52Z" fill="#0C4A4A"/>
<path id="Vector_16" d="M93.7785 106.52C94.3457 106.52 94.8055 106.063 94.8055 105.499C94.8055 104.934 94.3457 104.477 93.7785 104.477C93.2113 104.477 92.7515 104.934 92.7515 105.499C92.7515 106.063 93.2113 106.52 93.7785 106.52Z" fill="#0C4A4A"/>
<path id="Vector_17" d="M97.3731 106.52C97.9403 106.52 98.4002 106.063 98.4002 105.499C98.4002 104.934 97.9403 104.477 97.3731 104.477C96.8059 104.477 96.3461 104.934 96.3461 105.499C96.3461 106.063 96.8059 106.52 97.3731 106.52Z" fill="#0C4A4A"/>
<path id="Vector_18" d="M152.49 121.16H0.490234V121.5H152.49V121.16Z" fill="#3F3D56"/>
<path id="Vector_19" d="M41.8929 46.643V78.3042C41.8928 78.9666 41.6281 79.6018 41.1572 80.0702C40.6862 80.5385 40.0475 80.8017 39.3814 80.8019H27.0094C26.3432 80.802 25.7043 80.5389 25.2331 80.0705C24.7619 79.6021 24.4971 78.9668 24.4969 78.3042V46.643C24.4971 45.9805 24.7619 45.3452 25.2331 44.8768C25.7043 44.4084 26.3432 44.1453 27.0094 44.1454H28.5102C28.4366 44.3256 28.4085 44.5211 28.4286 44.7146C28.4486 44.9082 28.5162 45.0938 28.6253 45.2553C28.7344 45.4168 28.8818 45.5492 29.0543 45.6408C29.2269 45.7324 29.4195 45.7804 29.6152 45.7806H36.6689C36.8645 45.7804 37.0571 45.7324 37.2297 45.6408C37.4023 45.5492 37.5496 45.4168 37.6587 45.2553C37.7678 45.0938 37.8354 44.9082 37.8555 44.7146C37.8755 44.5211 37.8475 44.3256 37.7738 44.1454H39.3814C40.0475 44.1455 40.6862 44.4087 41.1572 44.8771C41.6281 45.3454 41.8928 45.9807 41.8929 46.643Z" fill="#E6E6E6"/>
<path id="Vector_20" d="M41.0688 50.1915H25.321V71.9808H41.0688V50.1915Z" fill="white"/>
<path id="Vector_21" d="M36.0776 65.1747H29.7923V65.5319H36.0776V65.1747Z" fill="#E6E6E6"/>
<path id="Vector_22" d="M39.5114 66.4861H29.7859V66.8433H39.5114V66.4861Z" fill="#0C4A4A"/>
<path id="Vector_23" d="M37.4182 67.7218H29.7859V68.079H37.4182V67.7218Z" fill="#E6E6E6"/>
<path id="Vector_24" d="M34.2755 68.9574H29.7859V69.3146H34.2755V68.9574Z" fill="#E6E6E6"/>
<path id="Vector_25" d="M36.5203 70.193H29.7859V70.5502H36.5203V70.193Z" fill="#E6E6E6"/>
<path id="Vector_26" d="M27.6602 65.0719H26.9419V65.7863H27.6602V65.0719Z" fill="#E6E6E6"/>
<path id="Vector_27" d="M27.6602 66.3075H26.9419V67.0219H27.6602V66.3075Z" fill="#0C4A4A"/>
<path id="Vector_28" d="M27.6602 67.5432H26.9419V68.2576H27.6602V67.5432Z" fill="#E6E6E6"/>
<path id="Vector_29" d="M27.6602 68.7788H26.9419V69.4932H27.6602V68.7788Z" fill="#E6E6E6"/>
<path id="Vector_30" d="M27.6602 70.0144H26.9419V70.7288H27.6602V70.0144Z" fill="#E6E6E6"/>
<path id="Vector_31" d="M36.3931 52.9153H30.0602V59.2133H36.3931V52.9153Z" fill="#E6E6E6"/>
<path id="Vector_32" d="M97.5433 0.523682H55.4551V27.3305H97.5433V0.523682Z" fill="#E6E6E6"/>
<path id="Vector_33" d="M93.5231 8.02332H58.628V21.1369H93.5231V8.02332Z" fill="white"/>
<path id="Vector_34" d="M73.3606 10.2953H64.9857V10.7712H73.3606V10.2953Z" fill="#E6E6E6"/>
<path id="Vector_35" d="M77.9359 12.0427H64.9773V12.5187H77.9359V12.0427Z" fill="#0C4A4A"/>
<path id="Vector_36" d="M75.1468 13.6892H64.9773V14.1651H75.1468V13.6892Z" fill="#E6E6E6"/>
<path id="Vector_37" d="M70.9593 15.3356H64.9773V15.8115H70.9593V15.3356Z" fill="#E6E6E6"/>
<path id="Vector_38" d="M73.9504 16.9819H64.9773V17.4579H73.9504V16.9819Z" fill="#E6E6E6"/>
<path id="Vector_39" d="M62.1449 10.1584H61.1877V11.1103H62.1449V10.1584Z" fill="#E6E6E6"/>
<path id="Vector_40" d="M62.1449 11.8048H61.1877V12.7567H62.1449V11.8048Z" fill="#0C4A4A"/>
<path id="Vector_41" d="M62.1449 13.4512H61.1877V14.403H62.1449V13.4512Z" fill="#E6E6E6"/>
<path id="Vector_42" d="M62.1449 15.0975H61.1877V16.0494H62.1449V15.0975Z" fill="#E6E6E6"/>
<path id="Vector_43" d="M62.1449 16.744H61.1877V17.6959H62.1449V16.744Z" fill="#E6E6E6"/>
<path id="Vector_44" d="M91.8107 9.66638H83.2421V18.1878H91.8107V9.66638Z" fill="#E6E6E6"/>
<path id="Vector_45" d="M97.5254 0.5H55.4371V2.27822H97.5254V0.5Z" fill="#0C4A4A"/>
<path id="Vector_46" d="M56.7659 1.76602C56.9641 1.76602 57.1248 1.60621 57.1248 1.40907C57.1248 1.21193 56.9641 1.05212 56.7659 1.05212C56.5676 1.05212 56.407 1.21193 56.407 1.40907C56.407 1.60621 56.5676 1.76602 56.7659 1.76602Z" fill="white"/>
<path id="Vector_47" d="M58.0238 1.76602C58.222 1.76602 58.3827 1.60621 58.3827 1.40907C58.3827 1.21193 58.222 1.05212 58.0238 1.05212C57.8256 1.05212 57.6649 1.21193 57.6649 1.40907C57.6649 1.60621 57.8256 1.76602 58.0238 1.76602Z" fill="white"/>
<path id="Vector_48" d="M59.2817 1.76602C59.48 1.76602 59.6407 1.60621 59.6407 1.40907C59.6407 1.21193 59.48 1.05212 59.2817 1.05212C59.0835 1.05212 58.9228 1.21193 58.9228 1.40907C58.9228 1.60621 59.0835 1.76602 59.2817 1.76602Z" fill="white"/>
<path id="Vector_49" d="M125.727 50.6848H115.457V55.9619H125.727V50.6848Z" fill="#E6E6E6"/>
<path id="Vector_50" d="M125.727 69.5802H115.457V74.8573H125.727V69.5802Z" fill="#E6E6E6"/>
<path id="Vector_51" d="M120.592 71.2825C125.319 71.2825 129.151 67.4718 129.151 62.7711C129.151 58.0704 125.319 54.2596 120.592 54.2596C115.865 54.2596 112.034 58.0704 112.034 62.7711C112.034 67.4718 115.865 71.2825 120.592 71.2825Z" fill="#E6E6E6"/>
<path id="Vector_52" d="M120.592 69.4099C124.279 69.4099 127.268 66.4376 127.268 62.771C127.268 59.1044 124.279 56.1321 120.592 56.1321C116.905 56.1321 113.916 59.1044 113.916 62.771C113.916 66.4376 116.905 69.4099 120.592 69.4099Z" fill="white"/>
<path id="Vector_53" d="M123.583 60.952H118.406V61.2462H123.583V60.952Z" fill="#E2E2E2"/>
<path id="Vector_54" d="M126.412 62.0323H118.401V62.3266H126.412V62.0323Z" fill="#0C4A4A"/>
<path id="Vector_55" d="M124.688 63.0502H118.401V63.3444H124.688V63.0502Z" fill="#E2E2E2"/>
<path id="Vector_56" d="M122.099 64.068H118.401V64.3622H122.099V64.068Z" fill="#E2E2E2"/>
<path id="Vector_57" d="M123.948 65.0858H118.401V65.38H123.948V65.0858Z" fill="#E2E2E2"/>
<path id="Vector_58" d="M116.65 60.8674H116.058V61.4559H116.65V60.8674Z" fill="#E2E2E2"/>
<path id="Vector_59" d="M116.65 61.8853H116.058V62.4737H116.65V61.8853Z" fill="#0C4A4A"/>
<path id="Vector_60" d="M116.65 62.9031H116.058V63.4915H116.65V62.9031Z" fill="#E2E2E2"/>
<path id="Vector_61" d="M116.65 63.9209H116.058V64.5093H116.65V63.9209Z" fill="#E2E2E2"/>
<path id="Vector_62" d="M116.65 64.9387H116.058V65.5272H116.65V64.9387Z" fill="#E2E2E2"/>
</g>
<defs>
<clipPath id="clip0_75_199">
<rect width="152" height="121" fill="white" transform="translate(0.490234 0.5)"/>
</clipPath>
</defs>
</svg>
