<svg width="298" height="120" viewBox="0 0 298 120" fill="none" xmlns="http://www.w3.org/2000/svg">
<path d="M45.51 119.409C46.7432 95.6887 66.5607 76.831 90.828 76.831C92.2072 76.831 93.5692 76.9022 94.9171 77.0214C100.218 67.9926 107.82 60.4986 116.962 55.2881C126.104 50.0775 136.467 47.3327 147.016 47.3278C157.565 47.3228 167.931 50.0579 177.078 55.2599C186.225 60.4619 193.833 67.9487 199.143 76.9726C200.28 76.8881 201.425 76.831 202.584 76.831C226.851 76.831 246.669 95.6887 247.902 119.409" fill="#F2F2F2"/>
<path d="M54.9619 115.954C56.1951 92.2328 76.0126 73.375 100.28 73.375C101.659 73.375 103.021 73.4462 104.369 73.5655C109.67 64.5366 117.271 57.0427 126.414 51.8321C135.556 46.6216 145.919 43.8768 156.468 43.8718C167.017 43.8669 177.383 46.602 186.53 51.804C195.677 57.006 203.285 64.4928 208.595 73.5167C209.732 73.4322 210.877 73.375 212.036 73.375C236.303 73.375 256.121 92.2328 257.354 115.954" stroke="#0C4A4A" stroke-miterlimit="10"/>
<path d="M232.655 39.8874C232.839 36.415 234.361 33.1447 236.909 30.7511C239.457 28.3575 242.835 27.023 246.347 27.023C246.764 27.023 247.175 27.0445 247.583 27.0805C249.184 24.3526 251.481 22.0884 254.243 20.5141C257.005 18.9398 260.136 18.1105 263.324 18.109C266.511 18.1075 269.643 18.9339 272.406 20.5056C275.17 22.0773 277.469 24.3393 279.073 27.0658C279.417 27.0402 279.763 27.023 280.113 27.023C283.625 27.023 287.003 28.3575 289.551 30.7511C292.099 33.1447 293.621 36.415 293.805 39.8874" fill="#F2F2F2"/>
<path d="M235.511 38.8432C235.694 35.3708 237.217 32.1005 239.765 29.7069C242.312 27.3133 245.691 25.9788 249.203 25.9788C249.62 25.9788 250.031 26.0003 250.438 26.0363C252.04 23.3084 254.337 21.0442 257.099 19.4699C259.861 17.8956 262.992 17.0663 266.179 17.0648C269.367 17.0633 272.498 17.8897 275.262 19.4614C278.026 21.0331 280.324 23.2951 281.929 26.0216C282.272 25.996 282.618 25.9788 282.968 25.9788C286.481 25.9788 289.859 27.3133 292.407 29.7069C294.954 32.1005 296.477 35.3708 296.661 38.8432" stroke="#0C4A4A" stroke-miterlimit="10"/>
<path d="M0.27655 31.7984C0.524925 27.1001 2.58511 22.6752 6.03221 19.4365C9.47931 16.1978 14.0504 14.3922 18.8028 14.3921C19.3666 14.3921 19.9234 14.4212 20.4744 14.47C22.6416 10.7789 25.749 7.71538 29.4864 5.58527C33.2238 3.45517 37.4602 2.33308 41.7727 2.33106C46.0852 2.32904 50.3228 3.44717 54.0622 5.57377C57.8016 7.70038 60.9119 10.761 63.0826 14.45C63.5475 14.4155 64.0155 14.3921 64.4893 14.3921C69.2416 14.3922 73.8128 16.1978 77.2598 19.4365C80.7069 22.6752 82.7671 27.1001 83.0155 31.7984" fill="#F2F2F2"/>
<path d="M4.1405 30.3857C4.38888 25.6874 6.44906 21.2625 9.89616 18.0238C13.3433 14.7851 17.9144 12.9795 22.6667 12.9794C23.2306 12.9794 23.7873 13.0085 24.3384 13.0573C26.5055 9.36622 29.613 6.30266 33.3504 4.17255C37.0877 2.04245 41.3242 0.920356 45.6367 0.918338C49.9492 0.916319 54.1867 2.03445 57.9261 4.16105C61.6655 6.28766 64.7759 9.34831 66.9466 13.0373C67.4114 13.0028 67.8794 12.9794 68.3532 12.9794C73.1056 12.9795 77.6767 14.7851 81.1238 18.0238C84.5709 21.2625 86.6311 25.6874 86.8795 30.3857" stroke="#0C4A4A" stroke-miterlimit="10"/>
</svg>
