<svg width="128" height="128" viewBox="0 0 128 128" fill="none" xmlns="http://www.w3.org/2000/svg">
<g clip-path="url(#clip0_616_548)">
<rect width="128" height="128" fill="white"/>
<rect x="91.3511" y="43.4749" width="9.94226" height="45.5781" transform="rotate(60.5401 91.3511 43.4749)" fill="#0C4A4A"/>
<path d="M42.3 82V94.72C42.3 95.12 42.5 95.32 42.9 95.32H47.7C48.1 95.32 48.3 95.12 48.3 94.72V73.12L38.82 68.92C38.1 68.68 37.1 68.28 35.82 67.72C34.54 67.08 33.38 66.16 32.34 64.96C31.38 63.76 30.9 62.12 30.9 60.04V32.68C30.9 29.32 31.94 26.64 34.02 24.64C36.1 22.56 38.82 21.52 42.18 21.52H48.42C51.78 21.52 54.5 22.56 56.58 24.64C58.66 26.64 59.7 29.32 59.7 32.68V50.44L48.3 49.48V33.28C48.3 32.88 48.1 32.68 47.7 32.68H42.9C42.5 32.68 42.3 32.88 42.3 33.28V58.36L51.78 62.56C52.5 62.88 53.5 63.32 54.78 63.88C56.06 64.44 57.18 65.32 58.14 66.52C59.18 67.72 59.7 69.36 59.7 71.44V95.32C59.7 98.68 58.66 101.4 56.58 103.48C54.5 105.48 51.78 106.48 48.42 106.48H42.18C38.82 106.48 36.1 105.48 34.02 103.48C31.94 101.4 30.9 98.68 30.9 95.32V82H42.3ZM96.3188 94.84C96.3188 98.2 95.2788 100.92 93.1988 103C91.1188 105 88.3988 106 85.0388 106H76.3988C73.0388 106 70.3188 105 68.2388 103C66.1588 100.92 65.1188 98.2 65.1188 94.84V33.16C65.1188 29.8 66.1588 27.12 68.2388 25.12C70.3188 23.04 73.0388 22 76.3988 22H85.0388C88.3988 22 91.1188 23.04 93.1988 25.12C95.2788 27.12 96.3188 29.8 96.3188 33.16V52.36H84.9188V33.76C84.9188 33.36 84.7188 33.16 84.3188 33.16H77.1188C76.7188 33.16 76.5188 33.36 76.5188 33.76V94.24C76.5188 94.64 76.7188 94.84 77.1188 94.84H84.3188C84.7188 94.84 84.9188 94.64 84.9188 94.24V69.4H80.2388L81.1988 58.24H96.3188V94.84Z" fill="black"/>
</g>
<defs>
<clipPath id="clip0_616_548">
<rect width="128" height="128" fill="white"/>
</clipPath>
</defs>
</svg>
