<svg width="205" height="118" viewBox="0 0 205 118" fill="none" xmlns="http://www.w3.org/2000/svg">
<g id="undraw_progressive_app_m-9-ms 1" clip-path="url(#clip0_75_157)">
<path id="Vector" d="M44.8383 104.356C50.6975 104.356 55.4474 99.6144 55.4474 93.7658C55.4474 87.9172 50.6975 83.176 44.8383 83.176C38.979 83.176 34.2291 87.9172 34.2291 93.7658C34.2291 99.6144 38.979 104.356 44.8383 104.356Z" fill="#F2F2F2"/>
<path id="Vector_2" d="M46.5633 102.806C52.4226 102.806 57.1725 98.0646 57.1725 92.216C57.1725 86.3674 52.4226 81.6262 46.5633 81.6262C40.7041 81.6262 35.9542 86.3674 35.9542 92.216C35.9542 98.0646 40.7041 102.806 46.5633 102.806Z" fill="#0C4A4A"/>
<path id="Vector_3" d="M186.371 80.4987H55.1074V80.8562H186.371V80.4987Z" fill="#3F3D56"/>
<path id="Vector_4" d="M123.089 3.83413H76.4985V2.87561H55.3726V3.83413H8.58996C8.1761 3.83413 7.76629 3.91549 7.38393 4.07358C7.00157 4.23167 6.65415 4.46339 6.36151 4.75549C6.06886 5.0476 5.83673 5.39439 5.67835 5.77605C5.51997 6.15771 5.43846 6.56677 5.43846 6.97987V70.6602C5.43845 71.4945 5.77049 72.2946 6.36151 72.8845C6.95253 73.4745 7.75413 73.8059 8.58996 73.8059H123.089C123.925 73.8059 124.727 73.4745 125.318 72.8845C125.909 72.2946 126.241 71.4945 126.241 70.6602V6.97987C126.241 6.56677 126.159 6.15771 126.001 5.77605C125.842 5.39439 125.61 5.0476 125.318 4.75549C125.025 4.46339 124.677 4.23167 124.295 4.07358C123.913 3.91549 123.503 3.83413 123.089 3.83413Z" fill="#3F3D56"/>
<path id="Vector_5" d="M122.015 9.39343H9.66365V72.6556H122.015V9.39343Z" fill="#0C4A4A"/>
<path id="Vector_6" d="M65.7435 7.66812C66.3799 7.66812 66.8958 7.15315 66.8958 6.5179C66.8958 5.88265 66.3799 5.36768 65.7435 5.36768C65.1071 5.36768 64.5912 5.88265 64.5912 6.5179C64.5912 7.15315 65.1071 7.66812 65.7435 7.66812Z" fill="#0C4A4A"/>
<path id="Vector_7" opacity="0.1" d="M89.8847 72.6557H9.66368V9.39355L89.8847 72.6557Z" fill="black"/>
<path id="Vector_8" d="M27.2433 67.9217C33.2078 67.9217 38.0429 63.0954 38.0429 57.1418C38.0429 51.1883 33.2078 46.3619 27.2433 46.3619C21.2789 46.3619 16.4437 51.1883 16.4437 57.1418C16.4437 63.0954 21.2789 67.9217 27.2433 67.9217Z" fill="#F2F2F2"/>
<path id="Vector_9" d="M102.453 43.5112H91.9582V45.7002H102.453V43.5112Z" fill="#3F3D56"/>
<path id="Vector_10" d="M115.141 26.4688H79.2704V27.4069H115.141V26.4688Z" fill="#3F3D56"/>
<path id="Vector_11" d="M115.141 29.4395H79.2704V30.3776H115.141V29.4395Z" fill="#3F3D56"/>
<path id="Vector_12" d="M115.141 32.4102H79.2704V33.3483H115.141V32.4102Z" fill="#3F3D56"/>
<path id="Vector_13" d="M115.141 35.3809H79.2704V36.319H115.141V35.3809Z" fill="#3F3D56"/>
<path id="Vector_14" d="M115.141 38.3516H79.2704V39.2897H115.141V38.3516Z" fill="#3F3D56"/>
<path id="Vector_15" d="M115.141 10.677H110.755V15.0549H115.141V10.677Z" fill="#F2F2F2"/>
<path id="Vector_16" d="M117.177 17.0874H111.851V11.7714H117.177V17.0874ZM112.083 16.8563H116.946V12.0025H112.083V16.8563Z" fill="#3F3D56"/>
<path id="Vector_17" d="M129.395 71.5055H118.43V70.7169C118.43 70.6964 118.426 70.676 118.418 70.6571C118.411 70.6381 118.399 70.6209 118.385 70.6063C118.37 70.5918 118.353 70.5803 118.334 70.5724C118.315 70.5646 118.294 70.5605 118.274 70.5605H114.514C114.494 70.5605 114.473 70.5646 114.454 70.5724C114.435 70.5803 114.418 70.5918 114.404 70.6063C114.389 70.6209 114.378 70.6381 114.37 70.6571C114.362 70.676 114.358 70.6964 114.358 70.7169V71.5055H112.008V70.7169C112.008 70.6964 112.004 70.676 111.996 70.6571C111.988 70.6381 111.977 70.6209 111.962 70.6063C111.948 70.5918 111.93 70.5803 111.911 70.5724C111.892 70.5646 111.872 70.5605 111.852 70.5605H108.092C108.072 70.5605 108.051 70.5646 108.032 70.5724C108.013 70.5803 107.996 70.5918 107.981 70.6063C107.967 70.6209 107.955 70.6381 107.947 70.6571C107.94 70.676 107.936 70.6964 107.936 70.7169V71.5055H105.586V70.7169C105.586 70.6964 105.582 70.676 105.574 70.6571C105.566 70.6381 105.555 70.6209 105.54 70.6063C105.525 70.5918 105.508 70.5803 105.489 70.5724C105.47 70.5646 105.45 70.5605 105.429 70.5605H101.67C101.649 70.5605 101.629 70.5646 101.61 70.5724C101.591 70.5803 101.574 70.5918 101.559 70.6063C101.545 70.6209 101.533 70.6381 101.525 70.6571C101.517 70.676 101.513 70.6964 101.513 70.7169V71.5055H99.1637V70.7169C99.1637 70.6964 99.1596 70.676 99.1517 70.6571C99.1439 70.6381 99.1323 70.6209 99.1178 70.6063C99.1032 70.5918 99.086 70.5803 99.067 70.5724C99.048 70.5646 99.0276 70.5605 99.007 70.5605H95.2477C95.2271 70.5605 95.2067 70.5646 95.1877 70.5724C95.1687 70.5803 95.1514 70.5918 95.1369 70.6063C95.1224 70.6209 95.1108 70.6381 95.1029 70.6571C95.0951 70.676 95.091 70.6964 95.091 70.7169V71.5055H92.7414V70.7169C92.7414 70.6964 92.7374 70.676 92.7295 70.6571C92.7216 70.6381 92.7101 70.6209 92.6955 70.6063C92.681 70.5918 92.6637 70.5803 92.6447 70.5724C92.6257 70.5646 92.6054 70.5605 92.5848 70.5605H88.8254C88.8048 70.5605 88.7845 70.5646 88.7655 70.5724C88.7465 70.5803 88.7292 70.5918 88.7147 70.6063C88.7001 70.6209 88.6886 70.6381 88.6807 70.6571C88.6728 70.676 88.6688 70.6964 88.6688 70.7169V71.5055H86.3192V70.7169C86.3192 70.6964 86.3151 70.676 86.3073 70.6571C86.2994 70.6381 86.2878 70.6209 86.2733 70.6063C86.2588 70.5918 86.2415 70.5803 86.2225 70.5724C86.2035 70.5646 86.1831 70.5605 86.1625 70.5605H82.4032C82.3826 70.5605 82.3622 70.5646 82.3432 70.5724C82.3242 70.5803 82.307 70.5918 82.2924 70.6063C82.2779 70.6209 82.2663 70.6381 82.2585 70.6571C82.2506 70.676 82.2465 70.6964 82.2465 70.7169V71.5055H79.8969V70.7169C79.8969 70.6964 79.8929 70.676 79.885 70.6571C79.8771 70.6381 79.8656 70.6209 79.8511 70.6063C79.8365 70.5918 79.8192 70.5803 79.8002 70.5724C79.7812 70.5646 79.7609 70.5605 79.7403 70.5605H50.292C50.2714 70.5605 50.251 70.5646 50.232 70.5724C50.213 70.5803 50.1958 70.5918 50.1812 70.6063C50.1667 70.6209 50.1551 70.6381 50.1473 70.6571C50.1394 70.676 50.1353 70.6964 50.1353 70.7169V71.5055H47.7857V70.7169C47.7857 70.6964 47.7817 70.676 47.7738 70.6571C47.7659 70.6381 47.7544 70.6209 47.7399 70.6063C47.7253 70.5918 47.708 70.5803 47.689 70.5724C47.67 70.5646 47.6497 70.5605 47.6291 70.5605H43.8697C43.8492 70.5605 43.8288 70.5646 43.8098 70.5724C43.7908 70.5803 43.7735 70.5918 43.759 70.6063C43.7444 70.6209 43.7329 70.6381 43.725 70.6571C43.7172 70.676 43.7131 70.6964 43.7131 70.7169V71.5055H41.3635V70.7169C41.3635 70.6964 41.3594 70.676 41.3516 70.6571C41.3437 70.6381 41.3322 70.6209 41.3176 70.6063C41.3031 70.5918 41.2858 70.5803 41.2668 70.5724C41.2478 70.5646 41.2274 70.5605 41.2069 70.5605H37.4475C37.4269 70.5605 37.4066 70.5646 37.3876 70.5724C37.3685 70.5803 37.3513 70.5918 37.3367 70.6063C37.3222 70.6209 37.3107 70.6381 37.3028 70.6571C37.2949 70.676 37.2909 70.6964 37.2909 70.7169V71.5055H34.9413V70.7169C34.9413 70.6964 34.9372 70.676 34.9293 70.6571C34.9215 70.6381 34.9099 70.6209 34.8954 70.6063C34.8808 70.5918 34.8636 70.5803 34.8446 70.5724C34.8256 70.5646 34.8052 70.5605 34.7846 70.5605H31.0253C31.0047 70.5605 30.9843 70.5646 30.9653 70.5724C30.9463 70.5803 30.929 70.5918 30.9145 70.6063C30.9 70.6209 30.8884 70.6381 30.8805 70.6571C30.8727 70.676 30.8686 70.6964 30.8686 70.7169V71.5055H28.519V70.7169C28.519 70.6964 28.515 70.676 28.5071 70.6571C28.4992 70.6381 28.4877 70.6209 28.4732 70.6063C28.4586 70.5918 28.4413 70.5803 28.4223 70.5724C28.4033 70.5646 28.383 70.5605 28.3624 70.5605H24.603C24.5825 70.5605 24.5621 70.5646 24.5431 70.5724C24.5241 70.5803 24.5068 70.5918 24.4923 70.6063C24.4777 70.6209 24.4662 70.6381 24.4583 70.6571C24.4504 70.676 24.4464 70.6964 24.4464 70.7169V71.5055H22.0968V70.7169C22.0968 70.6964 22.0927 70.676 22.0849 70.6571C22.077 70.6381 22.0654 70.6209 22.0509 70.6063C22.0364 70.5918 22.0191 70.5803 22.0001 70.5724C21.9811 70.5646 21.9607 70.5605 21.9401 70.5605H18.1808C18.1602 70.5605 18.1398 70.5646 18.1208 70.5724C18.1018 70.5803 18.0846 70.5918 18.07 70.6063C18.0555 70.6209 18.0439 70.6381 18.0361 70.6571C18.0282 70.676 18.0241 70.6964 18.0241 70.7169V71.5055H15.6745V70.7169C15.6745 70.6964 15.6705 70.676 15.6626 70.6571C15.6547 70.6381 15.6432 70.6209 15.6287 70.6063C15.6141 70.5918 15.5969 70.5803 15.5778 70.5724C15.5588 70.5646 15.5385 70.5605 15.5179 70.5605H11.7585C11.738 70.5605 11.7176 70.5646 11.6986 70.5724C11.6796 70.5803 11.6623 70.5918 11.6478 70.6063C11.6332 70.6209 11.6217 70.6381 11.6138 70.6571C11.606 70.676 11.6019 70.6964 11.6019 70.7169V71.5055H4.39646C3.39942 71.5055 2.44321 71.9008 1.73819 72.6045C1.03318 73.3083 0.637101 74.2627 0.6371 75.258V76.9548C0.637103 77.95 1.03318 78.9044 1.7382 79.6082C2.44321 80.3119 3.39942 80.7072 4.39646 80.7072H129.395C130.392 80.7072 131.348 80.3119 132.053 79.6082C132.758 78.9044 133.155 77.95 133.155 76.9548V75.258C133.155 74.2627 132.758 73.3083 132.053 72.6045C131.348 71.9008 130.392 71.5055 129.395 71.5055Z" fill="#3F3D56"/>
<path id="Vector_18" d="M29.8574 63.8748C27.1657 63.8748 24.5343 63.0781 22.2962 61.5853C20.0581 60.0926 18.3136 57.9709 17.2835 55.4885C16.2534 53.0062 15.9839 50.2747 16.5091 47.6395C17.0342 45.0042 18.3304 42.5836 20.2338 40.6837C22.1372 38.7838 24.5622 37.4899 27.2023 36.9658C29.8423 36.4416 32.5788 36.7106 35.0657 37.7388C37.5526 38.767 39.6782 40.5083 41.1737 42.7423C42.6691 44.9764 43.4673 47.6029 43.4673 50.2898C43.4633 53.8915 42.0281 57.3445 39.4766 59.8913C36.9251 62.4381 33.4658 63.8707 29.8574 63.8748ZM29.8574 37.0622C27.2365 37.0622 24.6744 37.838 22.4952 39.2915C20.3159 40.7449 18.6174 42.8108 17.6144 45.2278C16.6114 47.6448 16.349 50.3044 16.8603 52.8703C17.3716 55.4362 18.6338 57.7931 20.487 59.6431C22.3403 61.493 24.7016 62.7528 27.2722 63.2631C29.8427 63.7735 32.5072 63.5116 34.9287 62.5104C37.3501 61.5093 39.4197 59.8139 40.8759 57.6386C42.332 55.4633 43.1092 52.9059 43.1092 50.2898C43.1052 46.7828 41.7078 43.4206 39.2234 40.9409C36.7391 38.4611 33.3708 37.0662 29.8574 37.0622Z" fill="#3F3D56"/>
<path id="Vector_19" d="M151.272 6.31714H105.607V6.67464H151.272V6.31714Z" fill="#3F3D56"/>
<path id="Vector_20" d="M204.637 100.697H73.3733V101.055H204.637V100.697Z" fill="#3F3D56"/>
<path id="Vector_21" d="M80.805 117.142H35.1403V117.5H80.805V117.142Z" fill="#3F3D56"/>
<path id="Vector_22" d="M89.9968 98.8129H84.9827V103.818H89.9968V98.8129Z" fill="#0C4A4A"/>
<path id="Vector_23" d="M93.0411 100.958H86.9525V94.8804H93.0411V100.958ZM87.2172 100.694H92.7764V95.1446H87.2172V100.694Z" fill="#3F3D56"/>
<path id="Vector_24" d="M148.197 4.4325H143.183V9.43751H148.197V4.4325Z" fill="#0C4A4A"/>
<path id="Vector_25" d="M151.241 6.57752H145.153V0.5H151.241V6.57752ZM145.417 6.31328H150.977V0.764241H145.417V6.31328Z" fill="#3F3D56"/>
<path id="Vector_26" d="M198.697 98.8129H193.683V103.818H198.697V98.8129Z" fill="#0C4A4A"/>
<path id="Vector_27" d="M201.741 100.958H195.653V94.8804H201.741V100.958ZM195.917 100.694H201.477V95.1446H195.917V100.694Z" fill="#3F3D56"/>
<path id="Vector_28" d="M189.953 41.9626H189.527V30.315C189.527 29.4297 189.352 28.5531 189.013 27.7352C188.673 26.9173 188.176 26.1741 187.549 25.5481C186.922 24.9221 186.177 24.4255 185.358 24.0868C184.538 23.748 183.66 23.5736 182.773 23.5736H158.051C157.164 23.5736 156.286 23.748 155.466 24.0868C154.647 24.4255 153.902 24.9221 153.275 25.5481C152.648 26.1741 152.151 26.9173 151.811 27.7352C151.472 28.5531 151.297 29.4297 151.297 30.315V94.215C151.297 95.1003 151.472 95.9769 151.811 96.7948C152.151 97.6127 152.648 98.3559 153.275 98.9819C153.902 99.6079 154.647 100.104 155.466 100.443C156.286 100.782 157.164 100.956 158.051 100.956H182.773C183.66 100.956 184.538 100.782 185.358 100.443C186.177 100.104 186.922 99.6079 187.549 98.9819C188.176 98.3559 188.673 97.6127 189.013 96.7948C189.352 95.9769 189.527 95.1003 189.527 94.215V50.2537H189.953V41.9626Z" fill="#3F3D56"/>
<path id="Vector_29" d="M188.089 30.7112V94.5181C188.089 95.8533 187.558 97.1339 186.612 98.0782C185.666 99.0226 184.383 99.5532 183.046 99.5535H158.204C156.867 99.5532 155.584 99.0226 154.638 98.0782C153.692 97.1339 153.161 95.8533 153.161 94.5181V30.7112C153.161 29.3763 153.693 28.096 154.639 27.1521C155.584 26.2081 156.867 25.6778 158.204 25.6776H161.218C161.07 26.0408 161.013 26.4348 161.053 26.8249C161.093 27.215 161.229 27.5893 161.448 27.9147C161.668 28.2402 161.964 28.5069 162.31 28.6912C162.657 28.8756 163.044 28.972 163.437 28.972H177.6C177.993 28.972 178.38 28.8756 178.727 28.6912C179.073 28.5069 179.369 28.2402 179.589 27.9147C179.808 27.5893 179.943 27.215 179.984 26.8249C180.024 26.4348 179.967 26.0408 179.819 25.6776H183.046C184.383 25.6778 185.666 26.2081 186.611 27.1521C187.557 28.096 188.089 29.3763 188.089 30.7112Z" fill="#0C4A4A"/>
<path id="Vector_30" d="M174.325 67.7491H166.925V69.9381H174.325V67.7491Z" fill="#3F3D56"/>
<path id="Vector_31" d="M183.271 50.7065H157.979V51.6447H183.271V50.7065Z" fill="#3F3D56"/>
<path id="Vector_32" d="M183.271 53.6772H157.979V54.6154H183.271V53.6772Z" fill="#3F3D56"/>
<path id="Vector_33" d="M183.271 56.6479H157.979V57.5861H183.271V56.6479Z" fill="#3F3D56"/>
<path id="Vector_34" d="M183.271 59.6188H157.979V60.5569H183.271V59.6188Z" fill="#3F3D56"/>
<path id="Vector_35" d="M183.271 62.5895H157.979V63.5276H183.271V62.5895Z" fill="#3F3D56"/>
<path id="Vector_36" d="M171.509 38.2483H167.123V42.6262H171.509V38.2483Z" fill="#F2F2F2"/>
<path id="Vector_37" d="M168.802 39.3431V44.6592H174.127V39.3431H168.802ZM173.896 44.4286H169.033V39.5737H173.896V44.4286Z" fill="#3F3D56"/>
<path id="Vector_38" opacity="0.1" d="M188.089 87.7041V94.5181C188.089 95.8533 187.558 97.1339 186.612 98.0783C185.666 99.0226 184.383 99.5532 183.046 99.5535H158.204C156.867 99.5532 155.584 99.0226 154.638 98.0783C153.692 97.1339 153.161 95.8533 153.161 94.5181V60.1604L174.09 76.6644L174.448 76.9469L178.341 80.016L178.705 80.3038L188.089 87.7041Z" fill="black"/>
<path id="Vector_39" d="M168.476 97.4855C172.815 97.4855 176.332 93.9748 176.332 89.6441C176.332 85.3134 172.815 81.8027 168.476 81.8027C164.137 81.8027 160.62 85.3134 160.62 89.6441C160.62 93.9748 164.137 97.4855 168.476 97.4855Z" fill="#F2F2F2"/>
<path id="Vector_40" d="M57.9726 117.5C54.8912 117.5 51.8791 116.588 49.317 114.879C46.7549 113.17 44.758 110.742 43.5788 107.9C42.3996 105.058 42.0911 101.931 42.6922 98.9147C43.2934 95.8981 44.7772 93.1271 46.9561 90.9522C49.1349 88.7773 51.911 87.2962 54.9332 86.6962C57.9553 86.0961 61.0879 86.4041 63.9347 87.5811C66.7816 88.7582 69.2148 90.7514 70.9267 93.3088C72.6386 95.8662 73.5524 98.8729 73.5524 101.949C73.5477 106.072 71.9048 110.025 68.984 112.94C66.0633 115.855 62.1032 117.495 57.9726 117.5ZM57.9726 86.7548C54.9621 86.7548 52.0191 87.6459 49.516 89.3155C47.0128 90.985 45.0618 93.3579 43.9097 96.1342C42.7576 98.9105 42.4562 101.966 43.0435 104.913C43.6308 107.86 45.0805 110.567 47.2093 112.692C49.3381 114.817 52.0503 116.264 55.003 116.851C57.9557 117.437 61.0163 117.136 63.7977 115.986C66.5791 114.836 68.9563 112.888 70.6289 110.39C72.3015 107.891 73.1942 104.954 73.1942 101.949C73.1897 97.9204 71.5845 94.0584 68.7309 91.21C65.8773 88.3616 62.0082 86.7594 57.9726 86.7548Z" fill="#3F3D56"/>
<path id="Vector_41" d="M170.792 95.6925C168.844 95.6925 166.939 95.1159 165.32 94.0356C163.7 92.9553 162.437 91.4199 161.692 89.6235C160.947 87.827 160.751 85.8503 161.132 83.9432C161.512 82.0361 162.45 80.2844 163.827 78.9094C165.204 77.5345 166.959 76.5982 168.87 76.2188C170.781 75.8395 172.761 76.0342 174.561 76.7783C176.36 77.5224 177.899 78.7825 178.981 80.3992C180.063 82.016 180.641 83.9167 180.641 85.8612C180.638 88.4677 179.599 90.9666 177.753 92.8097C175.906 94.6528 173.403 95.6895 170.792 95.6925ZM170.792 76.3874C168.914 76.3874 167.079 76.943 165.519 77.984C163.958 79.025 162.741 80.5046 162.023 82.2357C161.305 83.9668 161.117 85.8717 161.483 87.7094C161.849 89.5472 162.753 91.2352 164.08 92.5602C165.408 93.8851 167.099 94.7874 168.94 95.1529C170.781 95.5185 172.689 95.3309 174.424 94.6138C176.158 93.8968 177.64 92.6825 178.683 91.1245C179.726 89.5666 180.283 87.7349 180.283 85.8612C180.28 83.3495 179.279 80.9414 177.5 79.1653C175.72 77.3893 173.308 76.3902 170.792 76.3874Z" fill="#3F3D56"/>
</g>
<defs>
<clipPath id="clip0_75_157">
<rect width="204" height="117" fill="white" transform="translate(0.6371 0.5)"/>
</clipPath>
</defs>
</svg>
