<svg width="557" height="333" viewBox="0 0 557 333" fill="none" xmlns="http://www.w3.org/2000/svg">
<g clip-path="url(#clip0_1_160)">
<path d="M32.8201 254.997C16.4256 249.037 2.19413 234.779 0.388763 217.438C16.3043 227.757 35.3591 232.117 54.1818 229.747C61.4376 228.807 69.4099 227.006 75.6189 230.874C79.4824 233.281 81.8809 237.554 82.9813 241.969C84.0815 246.384 84.0319 250.993 83.9757 255.542L84.4862 256.557C67.3603 259.879 49.2146 260.957 32.8201 254.997Z" fill="#157373"/>
<path d="M0.744448 217.351C9.09908 229.122 20.9523 237.962 34.6206 242.616C37.5452 243.671 40.6179 244.257 43.7254 244.355C46.7556 244.353 49.73 243.54 52.3393 242C54.8012 240.614 57.1587 238.91 59.915 238.146C61.3317 237.776 62.8108 237.709 64.2551 237.95C65.6995 238.191 67.0766 238.734 68.2962 239.544C71.3874 241.484 73.5969 244.418 75.6578 247.362C77.9461 250.631 80.2711 254.062 83.8432 256.047C84.276 256.287 83.8774 256.945 83.4452 256.704C77.2304 253.252 74.9293 245.928 69.6393 241.476C67.171 239.398 64.0611 238.051 60.799 238.723C57.9464 239.31 55.5138 241.064 53.0333 242.49C50.5098 244.029 47.6475 244.927 44.6965 245.106C41.594 245.166 38.5039 244.699 35.5584 243.723C28.892 241.632 22.5961 238.507 16.9012 234.461C10.3761 229.88 4.68317 224.218 0.0687549 217.718C-0.21668 217.316 0.460878 216.952 0.744448 217.351Z" fill="#F6F6F6"/>
<path d="M30.1312 241.376C29.0385 243.562 27.2039 245.289 24.955 246.247C22.7062 247.206 20.1895 247.335 17.8545 246.61C17.3825 246.462 17.5908 245.722 18.0634 245.871C20.2365 246.549 22.5808 246.429 24.6731 245.532C26.7654 244.635 28.4679 243.02 29.4733 240.979C29.6924 240.535 30.349 240.936 30.1312 241.376Z" fill="#F6F6F6"/>
<path d="M51.1838 242.868C49.6443 238.116 46.3692 234.118 42.0115 231.672C41.5796 231.43 41.9781 230.773 42.4095 231.015C46.9395 233.569 50.3392 237.736 51.9304 242.684C52.0817 243.156 51.3343 243.337 51.1838 242.868Z" fill="#F6F6F6"/>
<path d="M11.2454 229.348C11.8445 228.59 12.246 227.696 12.4137 226.745C12.5814 225.794 12.5101 224.816 12.2063 223.899C12.049 223.43 12.7967 223.249 12.9529 223.716C13.2839 224.73 13.3613 225.81 13.1783 226.861C12.9953 227.912 12.5576 228.903 11.9032 229.746C11.8482 229.83 11.763 229.891 11.665 229.915C11.5669 229.939 11.4633 229.925 11.3753 229.876C11.2885 229.823 11.2261 229.737 11.2018 229.639C11.1775 229.54 11.1931 229.435 11.2454 229.348Z" fill="#F6F6F6"/>
<path d="M41.7663 175.312C41.8728 175.602 41.9793 175.893 42.0921 176.185C43.5445 180.082 45.3114 183.856 47.3752 187.467C47.5304 187.749 47.6918 188.032 47.8547 188.309C52.9198 196.957 59.5475 204.59 67.4008 210.82C70.5281 213.296 73.8393 215.531 77.3059 217.505C82.0935 220.231 87.5015 222.806 91.0053 226.835C91.3755 227.251 91.7197 227.69 92.0356 228.148L85.6853 255.856C85.6392 255.911 85.5994 255.969 85.5533 256.025L85.3504 257.143C85.1645 257.054 84.9736 256.957 84.7877 256.868C84.6796 256.816 84.573 256.759 84.4649 256.707C84.3934 256.671 84.3218 256.635 84.2551 256.606C84.2312 256.594 84.2074 256.582 84.1898 256.571C84.1232 256.543 84.0643 256.509 84.0039 256.482C82.9354 255.945 81.8689 255.399 80.8042 254.845C80.7979 254.843 80.7979 254.843 80.7929 254.836C72.64 250.69 65.0079 245.593 58.0565 239.651C57.8515 239.471 57.6401 239.29 57.4379 239.097C54.3802 236.382 51.5496 233.423 48.9744 230.247C47.5698 228.504 46.2546 226.69 45.0335 224.814C41.8879 219.96 39.5258 214.642 38.0338 209.054C35.0613 197.915 35.6867 185.949 41.3278 176.063C41.4723 175.81 41.6154 175.563 41.7663 175.312Z" fill="#157373"/>
<path d="M42.1039 175.455C41.6837 189.88 45.822 204.07 53.9313 216.01C55.6313 218.612 57.7311 220.929 60.1532 222.877C62.5741 224.699 65.4388 225.839 68.4498 226.18C71.2508 226.554 74.1594 226.613 76.8207 227.661C78.1749 228.217 79.3962 229.054 80.4043 230.115C81.4124 231.177 82.1846 232.439 82.6702 233.82C83.9699 237.228 83.9665 240.9 83.8384 244.491C83.696 248.478 83.485 252.617 85.1415 256.351C85.3422 256.803 84.6281 257.088 84.4277 256.636C81.5456 250.14 84.1204 242.908 82.579 236.17C81.8597 233.026 80.188 230.08 77.179 228.653C74.5478 227.405 71.5486 227.342 68.7092 226.988C65.767 226.699 62.9405 225.694 60.4765 224.061C57.9629 222.242 55.7773 220.01 54.0133 217.458C49.9502 211.778 46.8062 205.494 44.6963 198.838C42.2461 191.254 41.1121 183.307 41.3433 175.341C41.3578 174.848 42.1183 174.965 42.1039 175.455Z" fill="#F6F6F6"/>
<path d="M51.0937 212.319C48.9044 213.407 46.3995 213.682 44.0263 213.094C41.6531 212.506 39.5662 211.095 38.1383 209.111C37.8507 208.709 38.4628 208.244 38.7507 208.647C40.077 210.496 42.0211 211.811 44.2321 212.353C46.4431 212.896 48.7754 212.631 50.808 211.606C51.25 211.384 51.5331 212.098 51.0937 212.319Z" fill="#F6F6F6"/>
<path d="M67.0045 226.177C68.6381 221.457 68.4314 216.294 66.4256 211.719C66.2265 211.266 66.9406 210.981 67.1395 211.434C69.2179 216.199 69.4221 221.571 67.7113 226.48C67.5479 226.947 66.842 226.642 67.0045 226.177Z" fill="#F6F6F6"/>
<path d="M43.2609 191.352C44.1957 191.107 45.0552 190.635 45.762 189.976C46.4689 189.318 47.0011 188.494 47.3107 187.579C47.4681 187.11 48.1738 187.415 48.0175 187.882C47.6706 188.891 47.0818 189.8 46.3024 190.529C45.5231 191.258 44.5768 191.786 43.5465 192.065C43.4515 192.1 43.3471 192.097 43.2542 192.057C43.1614 192.017 43.0872 191.944 43.0467 191.851C43.0094 191.757 43.0109 191.651 43.051 191.557C43.0911 191.464 43.1665 191.39 43.2609 191.352Z" fill="#F6F6F6"/>
<path d="M529.036 254.424C544.573 246.495 556.943 230.598 556.602 213.166C542.076 225.362 523.702 232.03 504.731 231.991C497.414 231.949 489.281 231.141 483.595 235.743C480.056 238.606 478.202 243.141 477.653 247.657C477.104 252.174 477.72 256.742 478.335 261.25L477.953 262.319C495.358 263.513 513.499 262.353 529.036 254.424Z" fill="#157373"/>
<path d="M556.238 213.124C549.394 225.832 538.718 236.061 525.726 242.359C522.954 243.765 519.976 244.724 516.904 245.203C513.897 245.573 510.845 245.132 508.066 243.924C505.452 242.851 502.903 241.45 500.074 241.03C498.622 240.836 497.146 240.951 495.743 241.368C494.339 241.785 493.039 242.493 491.928 243.447C489.099 245.751 487.267 248.935 485.584 252.11C483.715 255.635 481.83 259.326 478.529 261.734C478.129 262.026 478.605 262.629 479.005 262.338C484.748 258.148 486.131 250.597 490.833 245.529C493.027 243.164 495.948 241.445 499.268 241.711C502.171 241.943 504.801 243.385 507.438 244.495C510.131 245.713 513.082 246.253 516.033 246.068C519.119 245.746 522.129 244.903 524.932 243.573C531.29 240.679 537.154 236.804 542.308 232.089C548.22 226.742 553.174 220.422 556.954 213.405C557.188 212.971 556.47 212.693 556.238 213.124Z" fill="#F6F6F6"/>
<path d="M530.029 240.577C531.382 242.612 533.415 244.1 535.765 244.775C538.115 245.451 540.628 245.269 542.856 244.263C543.307 244.058 543.009 243.35 542.558 243.555C540.485 244.495 538.144 244.664 535.957 244.031C533.77 243.398 531.882 242.004 530.633 240.102C530.361 239.688 529.759 240.166 530.029 240.577Z" fill="#F6F6F6"/>
<path d="M509.32 244.643C510.263 239.738 513.022 235.369 517.045 232.406C517.444 232.113 516.968 231.51 516.569 231.802C512.388 234.893 509.527 239.446 508.556 244.553C508.464 245.04 509.228 245.127 509.32 244.643Z" fill="#F6F6F6"/>
<path d="M547.292 226.32C546.604 225.642 546.096 224.803 545.813 223.88C545.529 222.957 545.48 221.978 545.668 221.03C545.767 220.545 545.003 220.458 544.905 220.94C544.701 221.987 544.757 223.069 545.068 224.089C545.379 225.11 545.935 226.039 546.688 226.796C546.753 226.873 546.845 226.922 546.946 226.934C547.046 226.946 547.147 226.919 547.228 226.86C547.308 226.796 547.359 226.704 547.371 226.603C547.383 226.502 547.355 226.4 547.292 226.32Z" fill="#F6F6F6"/>
<path d="M510.357 176.443C510.287 176.744 510.217 177.045 510.141 177.349C509.179 181.396 507.889 185.357 506.285 189.195C506.166 189.493 506.041 189.794 505.913 190.089C501.95 199.293 496.311 207.683 489.284 214.83C486.485 217.672 483.474 220.296 480.276 222.681C475.86 225.975 470.81 229.195 467.828 233.624C467.512 234.082 467.224 234.56 466.967 235.054L476.677 261.771C476.73 261.821 476.776 261.873 476.829 261.923L477.168 263.007C477.341 262.896 477.519 262.776 477.692 262.665C477.793 262.601 477.892 262.53 477.993 262.466C478.06 262.421 478.126 262.376 478.189 262.34C478.211 262.325 478.233 262.31 478.249 262.297C478.312 262.261 478.366 262.22 478.423 262.186C479.417 261.521 480.408 260.849 481.397 260.168C481.403 260.166 481.403 260.166 481.407 260.158C488.988 255.042 495.936 249.046 502.103 242.295C502.285 242.091 502.472 241.886 502.649 241.669C505.35 238.6 507.795 235.315 509.96 231.847C511.139 229.944 512.222 227.983 513.203 225.971C515.727 220.767 517.417 215.199 518.211 209.471C519.791 198.05 517.698 186.253 510.884 177.134C510.71 176.901 510.537 176.674 510.357 176.443Z" fill="#157373"/>
<path d="M510.039 176.626C512.23 190.89 509.869 205.481 503.29 218.327C501.922 221.118 500.124 223.675 497.959 225.906C495.781 228.011 493.078 229.495 490.132 230.203C487.398 230.918 484.519 231.334 482.007 232.701C480.731 233.419 479.622 234.4 478.752 235.577C477.882 236.754 477.271 238.102 476.959 239.532C476.088 243.074 476.543 246.718 477.112 250.266C477.744 254.205 478.462 258.287 477.278 262.196C477.134 262.669 477.878 262.864 478.021 262.391C480.082 255.59 476.638 248.729 477.339 241.853C477.666 238.644 478.962 235.515 481.773 233.729C484.231 232.168 487.2 231.737 489.974 231.037C492.858 230.388 495.54 229.043 497.784 227.12C500.055 225.007 501.949 222.523 503.386 219.774C506.72 213.637 509.067 207.015 510.342 200.15C511.841 192.323 511.989 184.297 510.78 176.42C510.705 175.932 509.965 176.142 510.039 176.626Z" fill="#F6F6F6"/>
<path d="M505.652 214.315C507.958 215.126 510.478 215.091 512.761 214.216C515.044 213.341 516.941 211.684 518.114 209.54C518.35 209.106 517.686 208.719 517.449 209.154C516.361 211.152 514.593 212.696 512.465 213.506C510.338 214.316 507.991 214.34 505.847 213.572C505.382 213.406 505.188 214.15 505.652 214.315Z" fill="#F6F6F6"/>
<path d="M491.566 230.023C489.364 225.539 488.934 220.39 490.362 215.603C490.504 215.129 489.76 214.934 489.619 215.408C488.142 220.392 488.6 225.749 490.902 230.41C491.121 230.854 491.784 230.464 491.566 230.023Z" fill="#F6F6F6"/>
<path d="M510.846 192.545C509.888 192.417 508.977 192.053 508.195 191.487C507.412 190.92 506.783 190.168 506.363 189.298C506.149 188.852 505.486 189.242 505.699 189.685C506.167 190.644 506.863 191.474 507.726 192.102C508.59 192.73 509.594 193.137 510.65 193.288C510.749 193.31 510.852 193.294 510.939 193.244C511.027 193.193 511.091 193.111 511.12 193.014C511.146 192.915 511.131 192.811 511.08 192.723C511.028 192.635 510.944 192.571 510.846 192.545Z" fill="#F6F6F6"/>
<path d="M485.187 11.7122H375.722V18.7496C375.72 19.11 375.844 19.4597 376.073 19.7387C375.852 25.2394 375.722 32.2615 375.722 39.8924V228.04C375.722 245.675 376.43 260.024 377.298 260.024H483.611C484.479 260.024 485.187 245.675 485.187 228.04V39.8924C485.187 32.2615 485.057 25.2394 484.836 19.7387C485.065 19.4597 485.188 19.11 485.187 18.7496L485.187 11.7122Z" fill="#F6F6F6"/>
<path d="M483.611 260.785H377.298C376.47 260.785 375.922 260.785 375.424 250.682C375.125 244.62 374.961 236.578 374.961 228.039V39.8925C374.961 32.5174 375.085 25.3492 375.312 19.7082C375.453 16.3213 375.616 13.6084 375.794 11.6436C376.144 7.79719 376.476 7.14746 377.298 7.14746H483.611C484.433 7.14746 484.765 7.79719 485.115 11.6436C485.294 13.6158 485.456 16.3288 485.597 19.7067L485.597 19.7082C485.823 25.3433 485.948 32.5115 485.948 39.8925V228.039C485.948 236.579 485.783 244.62 485.485 250.682C484.987 260.785 484.439 260.785 483.611 260.785ZM377.731 259.263H483.178C483.729 257.184 484.425 245.895 484.425 228.04V39.8925C484.425 32.5315 484.301 25.3856 484.076 19.7706C483.936 16.4168 483.775 13.7287 483.599 11.781C483.531 10.7348 483.388 9.69486 483.171 8.66907H377.738C377.521 9.69487 377.378 10.7348 377.31 11.781C377.134 13.7213 376.974 16.4094 376.833 19.7706C376.608 25.3904 376.483 32.5371 376.483 39.8925V228.039C376.483 245.895 377.179 257.184 377.731 259.263Z" fill="#E4E4E4"/>
<path d="M483.611 7.90817H377.298C376.88 7.90898 376.48 8.07515 376.185 8.37031C375.889 8.66548 375.723 9.06559 375.722 9.48304V18.7496C375.72 19.11 375.844 19.4597 376.072 19.7387C376.22 19.9211 376.407 20.0683 376.619 20.1697C376.831 20.271 377.063 20.3239 377.298 20.3245H483.611C483.846 20.3238 484.078 20.2709 484.29 20.1696C484.502 20.0683 484.688 19.9211 484.836 19.7387C485.065 19.4597 485.188 19.11 485.187 18.7496V9.48304C485.186 9.06562 485.02 8.66552 484.724 8.37035C484.429 8.07518 484.029 7.90899 483.611 7.90817Z" fill="black"/>
<path d="M384.872 15.9005C386.108 15.9005 387.11 14.8992 387.11 13.664C387.11 12.4288 386.108 11.4275 384.872 11.4275C383.637 11.4275 382.635 12.4288 382.635 13.664C382.635 14.8992 383.637 15.9005 384.872 15.9005Z" fill="#F6F6F6"/>
<path d="M393.367 15.9005C394.603 15.9005 395.605 14.8992 395.605 13.664C395.605 12.4288 394.603 11.4275 393.367 11.4275C392.131 11.4275 391.129 12.4288 391.129 13.664C391.129 14.8992 392.131 15.9005 393.367 15.9005Z" fill="#F6F6F6"/>
<path d="M401.861 15.9005C403.097 15.9005 404.099 14.8992 404.099 13.664C404.099 12.4288 403.097 11.4275 401.861 11.4275C400.625 11.4275 399.623 12.4288 399.623 13.664C399.623 14.8992 400.625 15.9005 401.861 15.9005Z" fill="#F6F6F6"/>
<path d="M475.29 10.6775H465.507C465.316 10.6788 465.133 10.7554 464.997 10.8906C464.862 11.0259 464.786 11.209 464.784 11.4003C464.781 11.5092 464.808 11.6169 464.861 11.7122C464.919 11.8347 465.01 11.9383 465.125 12.0111C465.239 12.0838 465.372 12.1226 465.507 12.1231H475.29C475.427 12.1237 475.561 12.0854 475.677 12.0127C475.793 11.94 475.886 11.8357 475.945 11.7122C475.992 11.615 476.015 11.5082 476.013 11.4003C476.013 11.3053 475.995 11.2113 475.958 11.1236C475.922 11.0359 475.869 10.9562 475.801 10.8891C475.734 10.8219 475.654 10.7687 475.567 10.7324C475.479 10.6961 475.385 10.6775 475.29 10.6775Z" fill="#F6F6F6"/>
<path d="M475.29 13.3936H465.507C465.316 13.3936 465.132 13.4698 464.996 13.6053C464.86 13.7408 464.784 13.9247 464.784 14.1164C464.784 14.3081 464.86 14.4919 464.996 14.6275C465.132 14.763 465.316 14.8391 465.507 14.8391H475.29C475.482 14.8391 475.666 14.763 475.801 14.6275C475.937 14.4919 476.013 14.3081 476.013 14.1164C476.013 13.9247 475.937 13.7408 475.801 13.6053C475.666 13.4698 475.482 13.3936 475.29 13.3936Z" fill="#F6F6F6"/>
<path d="M475.29 16.1097H465.507C465.316 16.1097 465.132 16.1858 464.996 16.3214C464.86 16.4569 464.784 16.6408 464.784 16.8324C464.784 17.0241 464.86 17.208 464.996 17.3435C465.132 17.4791 465.316 17.5552 465.507 17.5552H475.29C475.482 17.5552 475.666 17.4791 475.801 17.3435C475.937 17.208 476.013 17.0241 476.013 16.8324C476.013 16.6408 475.937 16.4569 475.801 16.3214C475.666 16.1858 475.482 16.1097 475.29 16.1097Z" fill="#F6F6F6"/>
<path d="M441.032 40.638H420.904C419.895 40.6384 418.927 41.0393 418.213 41.7527C417.499 42.466 417.098 43.4333 417.098 44.4421V61.8645C417.099 62.8729 417.501 63.8395 418.214 64.5525C418.928 65.2655 419.895 65.6668 420.904 65.6685H441.032C442.041 65.6656 443.007 65.2639 443.721 64.5511C444.434 63.8383 444.836 62.8725 444.839 61.8645V44.4421C444.837 43.4337 444.435 42.4671 443.722 41.754C443.009 41.041 442.041 40.6397 441.032 40.638Z" fill="#157373"/>
<path d="M466.04 77.0501H395.888C395.43 77.0501 394.991 77.2321 394.666 77.556C394.342 77.8798 394.16 78.3191 394.16 78.7771C394.16 79.2352 394.342 79.6745 394.666 79.9983C394.991 80.3222 395.43 80.5042 395.888 80.5042H466.04C466.499 80.5042 466.938 80.3222 467.262 79.9983C467.586 79.6745 467.768 79.2352 467.768 78.7771C467.768 78.3191 467.586 77.8798 467.262 77.556C466.938 77.2321 466.499 77.0501 466.04 77.0501Z" fill="black"/>
<path d="M422.533 85.1451H395.888C395.43 85.1451 394.991 85.3271 394.666 85.651C394.342 85.9748 394.16 86.4141 394.16 86.8722C394.16 87.3302 394.342 87.7695 394.666 88.0933C394.991 88.4172 395.43 88.5992 395.888 88.5992H422.533C422.992 88.5992 423.431 88.4172 423.755 88.0933C424.079 87.7695 424.261 87.3302 424.261 86.8722C424.261 86.4141 424.079 85.9748 423.755 85.651C423.431 85.3271 422.992 85.1451 422.533 85.1451Z" fill="black"/>
<path d="M441.032 115.958H420.904C419.895 115.958 418.927 116.359 418.213 117.072C417.499 117.786 417.098 118.753 417.098 119.762V137.184C417.099 138.193 417.501 139.159 418.214 139.872C418.928 140.585 419.895 140.987 420.904 140.988H441.032C442.041 140.985 443.007 140.584 443.721 139.871C444.434 139.158 444.836 138.192 444.839 137.184V119.762C444.837 118.753 444.435 117.787 443.722 117.074C443.009 116.361 442.041 115.959 441.032 115.958Z" fill="#157373"/>
<path d="M466.04 152.37H395.888C395.43 152.37 394.991 152.552 394.666 152.876C394.342 153.2 394.16 153.639 394.16 154.097C394.16 154.555 394.342 154.994 394.666 155.318C394.991 155.642 395.43 155.824 395.888 155.824H466.04C466.499 155.824 466.938 155.642 467.262 155.318C467.586 154.994 467.768 154.555 467.768 154.097C467.768 153.639 467.586 153.2 467.262 152.876C466.938 152.552 466.499 152.37 466.04 152.37Z" fill="black"/>
<path d="M422.533 160.465H395.888C395.43 160.465 394.991 160.647 394.666 160.971C394.342 161.295 394.16 161.734 394.16 162.192C394.16 162.65 394.342 163.089 394.666 163.413C394.991 163.737 395.43 163.919 395.888 163.919H422.533C422.992 163.919 423.431 163.737 423.755 163.413C424.079 163.089 424.261 162.65 424.261 162.192C424.261 161.734 424.079 161.295 423.755 160.971C423.431 160.647 422.992 160.465 422.533 160.465Z" fill="black"/>
<path d="M441.032 191.277H420.904C419.895 191.278 418.927 191.679 418.213 192.392C417.499 193.105 417.098 194.073 417.098 195.081V212.504C417.099 213.512 417.501 214.479 418.214 215.192C418.928 215.905 419.895 216.306 420.904 216.308H441.032C442.041 216.305 443.007 215.903 443.721 215.19C444.434 214.478 444.836 213.512 444.839 212.504V195.081C444.837 194.073 444.435 193.106 443.722 192.393C443.009 191.68 442.041 191.279 441.032 191.277Z" fill="#157373"/>
<path d="M466.04 227.69H395.888C395.43 227.69 394.991 227.871 394.666 228.195C394.342 228.519 394.16 228.959 394.16 229.417C394.16 229.875 394.342 230.314 394.666 230.638C394.991 230.962 395.43 231.144 395.888 231.144H466.04C466.499 231.144 466.938 230.962 467.262 230.638C467.586 230.314 467.768 229.875 467.768 229.417C467.768 228.959 467.586 228.519 467.262 228.195C466.938 227.871 466.499 227.69 466.04 227.69Z" fill="black"/>
<path d="M422.533 235.785H395.888C395.43 235.785 394.991 235.966 394.666 236.29C394.342 236.614 394.16 237.053 394.16 237.512C394.16 237.97 394.342 238.409 394.666 238.733C394.991 239.057 395.43 239.239 395.888 239.239H422.533C422.992 239.239 423.431 239.057 423.755 238.733C424.079 238.409 424.261 237.97 424.261 237.512C424.261 237.053 424.079 236.614 423.755 236.29C423.431 235.966 422.992 235.785 422.533 235.785Z" fill="black"/>
<path d="M345.872 2.63578C345.871 2.21837 345.705 1.81827 345.41 1.5231C345.114 1.22793 344.714 1.06173 344.296 1.06091H62.889C62.4713 1.06172 62.0709 1.22789 61.7755 1.52305C61.4801 1.81822 61.3138 2.21833 61.3129 2.63578V11.9024C61.3116 12.2882 61.4557 12.6603 61.7166 12.9447C61.4653 19.2366 61.3129 27.5293 61.3129 36.6133V245.766C61.3129 265.38 62.0211 281.326 62.889 281.326H344.296C345.164 281.326 345.872 265.38 345.872 245.766V36.6133C345.872 27.5293 345.72 19.2366 345.469 12.9447C345.73 12.6603 345.874 12.2881 345.872 11.9024V2.63578Z" fill="#F6F6F6"/>
<path d="M344.296 282.087H62.889C62.0288 282.087 61.5095 282.087 61.0149 270.935C60.7161 264.198 60.5516 255.26 60.5516 245.766V36.6134C60.5516 27.8586 60.6952 19.4421 60.956 12.9144C61.4564 0.300181 62.0263 0.300171 62.889 0.300171H344.296C345.159 0.300171 345.729 0.30241 346.23 12.9144C346.49 19.4362 346.633 27.8526 346.633 36.6134V245.766C346.633 255.26 346.469 264.199 346.17 270.935C345.676 282.087 345.157 282.087 344.296 282.087ZM63.3334 280.565H343.852C344.475 278.18 345.111 264.786 345.111 245.766V36.6134C345.111 27.8723 344.968 19.4771 344.708 12.9753C344.391 4.98425 344.021 2.55212 343.844 1.82178H63.3417C63.1646 2.55215 62.7944 4.98389 62.4772 12.9749C62.2173 19.4834 62.0742 27.8782 62.0742 36.6134V245.766C62.0742 264.786 62.7103 278.18 63.3334 280.565Z" fill="#E4E4E4"/>
<path d="M344.296 1.06091H62.889C62.4713 1.06172 62.0709 1.22789 61.7755 1.52305C61.4801 1.81822 61.3138 2.21833 61.3129 2.63578V11.9024C61.3116 12.2882 61.4557 12.6603 61.7166 12.9447C61.8629 13.1117 62.0432 13.2455 62.2453 13.3374C62.4475 13.4292 62.6669 13.4769 62.889 13.4773H344.296C344.518 13.4769 344.738 13.4292 344.94 13.3374C345.142 13.2455 345.323 13.1117 345.469 12.9447C345.73 12.6603 345.874 12.2881 345.872 11.9024V2.63578C345.871 2.21838 345.705 1.81829 345.41 1.52312C345.114 1.22795 344.714 1.06175 344.296 1.06091Z" fill="#010101"/>
<path d="M70.4634 9.05325C71.6993 9.05325 72.7013 8.05194 72.7013 6.81677C72.7013 5.5816 71.6993 4.58029 70.4634 4.58029C69.2275 4.58029 68.2255 5.5816 68.2255 6.81677C68.2255 8.05194 69.2275 9.05325 70.4634 9.05325Z" fill="#F6F6F6"/>
<path d="M78.9577 9.05325C80.1936 9.05325 81.1955 8.05194 81.1955 6.81677C81.1955 5.5816 80.1936 4.58029 78.9577 4.58029C77.7217 4.58029 76.7198 5.5816 76.7198 6.81677C76.7198 8.05194 77.7217 9.05325 78.9577 9.05325Z" fill="#F6F6F6"/>
<path d="M87.4523 9.05325C88.6882 9.05325 89.6902 8.05194 89.6902 6.81677C89.6902 5.5816 88.6882 4.58029 87.4523 4.58029C86.2163 4.58029 85.2144 5.5816 85.2144 6.81677C85.2144 8.05194 86.2163 9.05325 87.4523 9.05325Z" fill="#F6F6F6"/>
<path d="M335.975 3.83029H326.193C326.001 3.83029 325.817 3.90644 325.682 4.04198C325.546 4.17753 325.47 4.36137 325.47 4.55305C325.47 4.74474 325.546 4.92858 325.682 5.06413C325.817 5.19967 326.001 5.27583 326.193 5.27583H335.975C336.167 5.27583 336.351 5.19967 336.487 5.06413C336.623 4.92858 336.699 4.74474 336.699 4.55305C336.699 4.36137 336.623 4.17753 336.487 4.04198C336.351 3.90644 336.167 3.83029 335.975 3.83029Z" fill="#F6F6F6"/>
<path d="M335.975 6.54636H326.193C326.001 6.54636 325.817 6.6225 325.682 6.75805C325.546 6.89359 325.47 7.07743 325.47 7.26912C325.47 7.46081 325.546 7.64465 325.682 7.78019C325.817 7.91574 326.001 7.99188 326.193 7.99188H335.975C336.167 7.99188 336.351 7.91574 336.487 7.78019C336.623 7.64465 336.699 7.46081 336.699 7.26912C336.699 7.07743 336.623 6.89359 336.487 6.75805C336.351 6.6225 336.167 6.54636 335.975 6.54636Z" fill="#F6F6F6"/>
<path d="M335.975 9.26245H326.193C326.001 9.26245 325.817 9.33861 325.682 9.47415C325.546 9.6097 325.47 9.79352 325.47 9.98521C325.47 10.1769 325.546 10.3607 325.682 10.4963C325.817 10.6318 326.001 10.708 326.193 10.708H335.975C336.167 10.708 336.351 10.6318 336.487 10.4963C336.623 10.3607 336.699 10.1769 336.699 9.98521C336.699 9.79352 336.623 9.6097 336.487 9.47415C336.351 9.33861 336.167 9.26245 335.975 9.26245Z" fill="#F6F6F6"/>
<path d="M153.847 47.4853H120.914C119.263 47.4873 117.68 48.1436 116.513 49.3103C115.345 50.477 114.689 52.0588 114.687 53.7087V82.216C114.689 83.8659 115.345 85.4477 116.513 86.6144C117.68 87.7811 119.263 88.4374 120.914 88.4394H153.847C155.498 88.4374 157.081 87.7811 158.248 86.6144C159.415 85.4477 160.072 83.8659 160.074 82.216V53.7087C160.072 52.0588 159.415 50.477 158.248 49.3103C157.081 48.1436 155.498 47.4873 153.847 47.4853Z" fill="#157373"/>
<path d="M289.682 58.5094H174.896C174.146 58.5094 173.427 58.8071 172.896 59.3372C172.366 59.8672 172.068 60.5861 172.068 61.3357C172.068 62.0853 172.366 62.8042 172.896 63.3343C173.427 63.8643 174.146 64.1621 174.896 64.1621H289.682C290.432 64.1621 291.151 63.8643 291.682 63.3343C292.212 62.8042 292.51 62.0853 292.51 61.3357C292.51 60.5861 292.212 59.8672 291.682 59.3372C291.151 58.8071 290.432 58.5094 289.682 58.5094Z" fill="black"/>
<path d="M218.495 71.7549H174.896C174.146 71.7549 173.427 72.0527 172.896 72.5827C172.366 73.1128 172.068 73.8317 172.068 74.5813C172.068 75.3309 172.366 76.0498 172.896 76.5798C173.427 77.1099 174.146 77.4077 174.896 77.4077H218.495C219.245 77.4077 219.964 77.1099 220.495 76.5798C221.025 76.0498 221.323 75.3309 221.323 74.5813C221.323 73.8317 221.025 73.1128 220.495 72.5827C219.964 72.0527 219.245 71.7549 218.495 71.7549Z" fill="black"/>
<path d="M153.847 123.566H120.914C119.263 123.568 117.68 124.224 116.513 125.391C115.345 126.557 114.689 128.139 114.687 129.789V158.297C114.689 159.946 115.345 161.528 116.513 162.695C117.68 163.862 119.263 164.518 120.914 164.52H153.847C155.498 164.518 157.081 163.862 158.248 162.695C159.415 161.528 160.072 159.946 160.074 158.297V129.789C160.072 128.139 159.415 126.557 158.248 125.391C157.081 124.224 155.498 123.568 153.847 123.566Z" fill="#157373"/>
<path d="M289.682 134.59H174.896C174.146 134.59 173.427 134.888 172.896 135.418C172.366 135.948 172.068 136.667 172.068 137.416C172.068 138.166 172.366 138.885 172.896 139.415C173.427 139.945 174.146 140.243 174.896 140.243H289.682C290.432 140.243 291.151 139.945 291.682 139.415C292.212 138.885 292.51 138.166 292.51 137.416C292.51 136.667 292.212 135.948 291.682 135.418C291.151 134.888 290.432 134.59 289.682 134.59Z" fill="black"/>
<path d="M218.495 147.835H174.896C174.146 147.835 173.427 148.133 172.896 148.663C172.366 149.193 172.068 149.912 172.068 150.662C172.068 151.411 172.366 152.13 172.896 152.66C173.427 153.19 174.146 153.488 174.896 153.488H218.495C219.245 153.488 219.964 153.19 220.495 152.66C221.025 152.13 221.323 151.411 221.323 150.662C221.323 149.912 221.025 149.193 220.495 148.663C219.964 148.133 219.245 147.835 218.495 147.835Z" fill="black"/>
<path d="M153.847 199.646H120.914C119.263 199.648 117.68 200.305 116.513 201.471C115.345 202.638 114.689 204.22 114.687 205.87V234.377C114.689 236.027 115.345 237.609 116.513 238.775C117.68 239.942 119.263 240.598 120.914 240.6H153.847C155.498 240.598 157.081 239.942 158.248 238.775C159.415 237.609 160.072 236.027 160.074 234.377V205.87C160.072 204.22 159.415 202.638 158.248 201.471C157.081 200.305 155.498 199.648 153.847 199.646Z" fill="#157373"/>
<path d="M289.682 210.67H174.896C174.146 210.67 173.427 210.968 172.896 211.498C172.366 212.028 172.068 212.747 172.068 213.497C172.068 214.246 172.366 214.965 172.896 215.495C173.427 216.025 174.146 216.323 174.896 216.323H289.682C290.432 216.323 291.151 216.025 291.682 215.495C292.212 214.965 292.51 214.246 292.51 213.497C292.51 212.747 292.212 212.028 291.682 211.498C291.151 210.968 290.432 210.67 289.682 210.67Z" fill="black"/>
<path d="M218.495 223.916H174.896C174.146 223.916 173.427 224.214 172.896 224.744C172.366 225.274 172.068 225.993 172.068 226.742C172.068 227.492 172.366 228.211 172.896 228.741C173.427 229.271 174.146 229.569 174.896 229.569H218.495C219.245 229.569 219.964 229.271 220.495 228.741C221.025 228.211 221.323 227.492 221.323 226.742C221.323 225.993 221.025 225.274 220.495 224.744C219.964 224.214 219.245 223.916 218.495 223.916Z" fill="black"/>
<path d="M394.543 331.539H206.013C205.144 331.539 204.437 318.188 204.437 301.774V126.687C204.437 110.274 205.144 96.9218 206.013 96.9218H394.543C395.412 96.9218 396.119 110.274 396.119 126.687V301.774C396.119 318.188 395.412 331.539 394.543 331.539Z" fill="#F6F6F6"/>
<path d="M394.543 332.3H206.013C205.215 332.3 204.639 332.3 204.139 322.852C203.84 317.211 203.675 309.725 203.675 301.774V126.687C203.675 118.736 203.84 111.25 204.139 105.609C204.639 96.1609 205.215 96.1609 206.013 96.1609H394.543C395.341 96.1609 395.917 96.1609 396.417 105.609C396.716 111.25 396.881 118.736 396.881 126.687V301.774C396.881 309.725 396.716 317.211 396.417 322.852C395.917 332.3 395.341 332.3 394.543 332.3ZM206.434 330.779H394.122C394.668 328.807 395.358 318.306 395.358 301.774V126.687C395.358 110.155 394.668 99.6536 394.122 97.6825H206.434C205.888 99.6536 205.198 110.155 205.198 126.687V301.774C205.198 318.306 205.888 328.807 206.434 330.779Z" fill="#E4E4E4"/>
<path d="M394.543 109.338H206.013C205.595 109.338 205.194 109.172 204.899 108.877C204.603 108.581 204.437 108.181 204.437 107.763V98.4971C204.437 98.0795 204.603 97.6791 204.899 97.3837C205.194 97.0884 205.595 96.9223 206.013 96.9218H394.543C394.961 96.9223 395.362 97.0884 395.657 97.3837C395.953 97.6791 396.119 98.0795 396.119 98.4971V107.763C396.119 108.181 395.953 108.581 395.657 108.877C395.362 109.172 394.961 109.338 394.543 109.338Z" fill="black"/>
<path d="M213.584 104.915C214.82 104.915 215.822 103.913 215.822 102.678C215.822 101.443 214.82 100.442 213.584 100.442C212.348 100.442 211.346 101.443 211.346 102.678C211.346 103.913 212.348 104.915 213.584 104.915Z" fill="#F6F6F6"/>
<path d="M222.079 104.915C223.314 104.915 224.316 103.913 224.316 102.678C224.316 101.443 223.314 100.442 222.079 100.442C220.843 100.442 219.841 101.443 219.841 102.678C219.841 103.913 220.843 104.915 222.079 104.915Z" fill="#F6F6F6"/>
<path d="M230.573 104.915C231.809 104.915 232.811 103.913 232.811 102.678C232.811 101.443 231.809 100.442 230.573 100.442C229.337 100.442 228.335 101.443 228.335 102.678C228.335 103.913 229.337 104.915 230.573 104.915Z" fill="#F6F6F6"/>
<path d="M386.221 101.139H376.439C376.247 101.139 376.063 101.063 375.927 100.927C375.791 100.791 375.715 100.607 375.715 100.415C375.715 100.223 375.791 100.039 375.927 99.9027C376.063 99.767 376.247 99.6907 376.439 99.6907H386.221C386.412 99.6913 386.596 99.7679 386.731 99.9036C386.867 100.039 386.943 100.223 386.943 100.415C386.943 100.606 386.867 100.79 386.731 100.926C386.596 101.062 386.412 101.138 386.221 101.139Z" fill="#F6F6F6"/>
<path d="M386.221 103.854H376.439C376.247 103.854 376.063 103.778 375.927 103.642C375.791 103.506 375.715 103.322 375.715 103.13C375.715 102.938 375.791 102.754 375.927 102.618C376.063 102.482 376.247 102.406 376.439 102.406H386.221C386.413 102.406 386.597 102.482 386.733 102.618C386.869 102.754 386.945 102.938 386.945 103.13C386.945 103.322 386.869 103.506 386.733 103.642C386.597 103.778 386.413 103.854 386.221 103.854Z" fill="#F6F6F6"/>
<path d="M386.221 106.57H376.439C376.247 106.57 376.063 106.493 375.927 106.357C375.791 106.222 375.715 106.038 375.715 105.845C375.715 105.653 375.791 105.469 375.927 105.333C376.063 105.198 376.247 105.121 376.439 105.121H386.221C386.412 105.122 386.596 105.199 386.731 105.334C386.867 105.47 386.943 105.654 386.943 105.845C386.943 106.037 386.867 106.221 386.731 106.357C386.596 106.492 386.412 106.569 386.221 106.57Z" fill="#F6F6F6"/>
<path d="M263.946 166.853H239.895C238.689 166.852 237.533 166.372 236.68 165.52C235.828 164.668 235.348 163.513 235.347 162.308V141.489C235.348 140.284 235.828 139.129 236.68 138.277C237.533 137.425 238.689 136.945 239.895 136.944H263.946C265.152 136.945 266.308 137.425 267.161 138.277C268.013 139.129 268.493 140.284 268.494 141.489V162.308C268.493 163.513 268.013 164.668 267.161 165.52C266.308 166.372 265.152 166.852 263.946 166.853Z" fill="#157373"/>
<path d="M363.145 149.126H279.32C278.772 149.126 278.247 148.908 277.859 148.521C277.472 148.134 277.255 147.609 277.255 147.062C277.255 146.515 277.472 145.99 277.859 145.603C278.247 145.216 278.772 144.998 279.32 144.998H363.145C363.692 144.998 364.217 145.216 364.605 145.603C364.992 145.99 365.21 146.515 365.21 147.062C365.21 147.609 364.992 148.134 364.605 148.521C364.217 148.908 363.692 149.126 363.145 149.126Z" fill="black"/>
<path d="M311.158 158.799H279.32C278.772 158.799 278.247 158.581 277.859 158.194C277.472 157.807 277.255 157.282 277.255 156.735C277.255 156.188 277.472 155.663 277.859 155.276C278.247 154.889 278.772 154.671 279.32 154.671H311.158C311.429 154.671 311.698 154.724 311.949 154.827C312.2 154.931 312.428 155.083 312.62 155.274C312.812 155.466 312.965 155.694 313.069 155.944C313.173 156.195 313.227 156.464 313.227 156.735C313.227 157.006 313.173 157.275 313.069 157.526C312.965 157.776 312.812 158.004 312.62 158.196C312.428 158.387 312.2 158.539 311.949 158.643C311.698 158.746 311.429 158.799 311.158 158.799Z" fill="black"/>
<path d="M263.946 228.478H239.895C238.689 228.477 237.533 227.997 236.68 227.145C235.828 226.293 235.348 225.138 235.347 223.933V203.115C235.348 201.91 235.828 200.754 236.68 199.902C237.533 199.05 238.689 198.571 239.895 198.569H263.946C265.152 198.571 266.308 199.05 267.161 199.902C268.013 200.754 268.493 201.91 268.494 203.115V223.933C268.493 225.138 268.013 226.293 267.161 227.145C266.308 227.997 265.152 228.477 263.946 228.478Z" fill="#157373"/>
<path d="M363.145 210.751H279.32C278.772 210.751 278.247 210.534 277.859 210.146C277.472 209.759 277.255 209.235 277.255 208.687C277.255 208.14 277.472 207.615 277.859 207.228C278.247 206.841 278.772 206.624 279.32 206.624H363.145C363.692 206.624 364.217 206.841 364.605 207.228C364.992 207.615 365.21 208.14 365.21 208.687C365.21 209.235 364.992 209.759 364.605 210.146C364.217 210.534 363.692 210.751 363.145 210.751Z" fill="black"/>
<path d="M311.158 220.424H279.32C278.772 220.424 278.247 220.206 277.859 219.819C277.472 219.432 277.255 218.907 277.255 218.36C277.255 217.813 277.472 217.288 277.859 216.901C278.247 216.514 278.772 216.296 279.32 216.296H311.158C311.429 216.296 311.698 216.349 311.949 216.452C312.2 216.556 312.428 216.708 312.62 216.899C312.812 217.091 312.965 217.319 313.069 217.569C313.173 217.82 313.227 218.089 313.227 218.36C313.227 218.631 313.173 218.9 313.069 219.151C312.965 219.401 312.812 219.629 312.62 219.821C312.428 220.012 312.2 220.164 311.949 220.268C311.698 220.371 311.429 220.424 311.158 220.424Z" fill="black"/>
<path d="M263.946 290.103H239.895C238.689 290.102 237.533 289.623 236.68 288.771C235.828 287.918 235.348 286.763 235.347 285.558V264.74C235.348 263.535 235.828 262.379 236.68 261.527C237.533 260.675 238.689 260.196 239.895 260.194H263.946C265.152 260.196 266.308 260.675 267.161 261.527C268.013 262.379 268.493 263.535 268.494 264.74V285.558C268.493 286.763 268.013 287.918 267.161 288.771C266.308 289.623 265.152 290.102 263.946 290.103Z" fill="#157373"/>
<path d="M363.145 272.376H279.32C278.772 272.376 278.247 272.159 277.859 271.772C277.472 271.385 277.255 270.86 277.255 270.312C277.255 269.765 277.472 269.24 277.859 268.853C278.247 268.466 278.772 268.249 279.32 268.249H363.145C363.692 268.249 364.217 268.466 364.605 268.853C364.992 269.24 365.21 269.765 365.21 270.312C365.21 270.86 364.992 271.385 364.605 271.772C364.217 272.159 363.692 272.376 363.145 272.376Z" fill="black"/>
<path d="M311.158 282.049H279.32C278.772 282.049 278.247 281.832 277.859 281.445C277.472 281.058 277.255 280.533 277.255 279.985C277.255 279.438 277.472 278.913 277.859 278.526C278.247 278.139 278.772 277.922 279.32 277.922H311.158C311.429 277.921 311.698 277.974 311.949 278.078C312.2 278.181 312.428 278.333 312.62 278.525C312.812 278.716 312.965 278.944 313.069 279.195C313.173 279.445 313.227 279.714 313.227 279.985C313.227 280.257 313.173 280.525 313.069 280.776C312.965 281.027 312.812 281.254 312.62 281.446C312.428 281.638 312.2 281.79 311.949 281.893C311.698 281.997 311.429 282.049 311.158 282.049Z" fill="black"/>
</g>
<defs>
<clipPath id="clip0_1_160">
<rect width="557" height="332" fill="white" transform="translate(0 0.300201)"/>
</clipPath>
</defs>
</svg>
