<svg width="25" height="26" viewBox="0 0 25 26" fill="none" xmlns="http://www.w3.org/2000/svg">
<g id="Phone">
<path id="Vector" d="M21.7158 15.8652L17.1152 13.8037L17.1025 13.7979C16.8637 13.6957 16.6032 13.6547 16.3445 13.6786C16.0858 13.7024 15.8372 13.7904 15.6211 13.9346C15.5957 13.9514 15.5712 13.9696 15.5479 13.9893L13.1709 16.0156C11.665 15.2842 10.1104 13.7412 9.37892 12.2549L11.4082 9.8418C11.4277 9.81738 11.4463 9.79297 11.4639 9.7666C11.6049 9.55108 11.6905 9.30403 11.713 9.04744C11.7355 8.79085 11.6942 8.53267 11.5928 8.2959V8.28418L9.5254 3.67578C9.39136 3.36647 9.16087 3.1088 8.86836 2.94125C8.57584 2.77369 8.23697 2.70524 7.90235 2.74609C6.57908 2.92022 5.36444 3.57009 4.4853 4.57431C3.60615 5.57854 3.12262 6.86845 3.12501 8.20313C3.12501 15.957 9.4336 22.2656 17.1875 22.2656C18.5222 22.268 19.8121 21.7845 20.8163 20.9053C21.8205 20.0262 22.4704 18.8116 22.6445 17.4883C22.6855 17.1538 22.6172 16.815 22.4498 16.5225C22.2824 16.23 22.025 15.9994 21.7158 15.8652ZM17.1875 20.7031C13.8734 20.6995 10.6961 19.3814 8.35267 17.038C6.00925 14.6945 4.69113 11.5172 4.68751 8.20313C4.68384 7.2495 5.0274 6.32714 5.65405 5.60831C6.28069 4.88947 7.14757 4.42331 8.09278 4.29688C8.0924 4.30077 8.0924 4.3047 8.09278 4.30859L10.1436 8.89844L8.12501 11.3145C8.10452 11.338 8.08591 11.3632 8.06934 11.3896C7.92239 11.6152 7.83618 11.8748 7.81907 12.1434C7.80196 12.412 7.85453 12.6805 7.97169 12.9229C8.85645 14.7324 10.6797 16.542 12.5088 17.4258C12.7529 17.5418 13.0229 17.5926 13.2925 17.5731C13.5621 17.5536 13.822 17.4645 14.0469 17.3145C14.072 17.2976 14.0961 17.2793 14.1192 17.2598L16.4932 15.2344L21.083 17.29C21.083 17.29 21.0908 17.29 21.0938 17.29C20.9689 18.2366 20.5034 19.1052 19.7844 19.7334C19.0655 20.3616 18.1423 20.7063 17.1875 20.7031Z" fill="white"/>
</g>
</svg>
