<svg width="37" height="37" viewBox="0 0 37 37" fill="none" xmlns="http://www.w3.org/2000/svg">
<g id="Star">
<path id="Star 2" d="M18.2718 2.70803C18.4329 2.27271 19.0486 2.27272 19.2097 2.70802L23.0439 13.0699C23.1958 13.4804 23.5196 13.8042 23.9301 13.9561L34.292 17.7903C34.7273 17.9514 34.7273 18.5671 34.292 18.7282L23.9301 22.5624C23.5196 22.7143 23.1958 23.038 23.0439 23.4486L19.2097 33.8105C19.0486 34.2458 18.4329 34.2458 18.2718 33.8105L14.4376 23.4486C14.2857 23.038 13.962 22.7143 13.5514 22.5624L3.18953 18.7282C2.75422 18.5671 2.75423 17.9514 3.18953 17.7903L13.5514 13.9561C13.962 13.8042 14.2857 13.4804 14.4376 13.0699L18.2718 2.70803Z" stroke="#157373"/>
<path id="Star 1" d="M17.8029 9.80929C18.125 8.93867 19.3564 8.93867 19.6786 9.80929L21.548 14.8612C21.6493 15.1349 21.8651 15.3507 22.1388 15.452L27.1907 17.3214C28.0613 17.6435 28.0613 18.8749 27.1907 19.1971L22.1388 21.0665C21.8651 21.1677 21.6493 21.3836 21.548 21.6573L19.6786 26.7092C19.3564 27.5798 18.125 27.5798 17.8029 26.7092L15.9335 21.6573C15.8322 21.3836 15.6164 21.1677 15.3427 21.0665L10.2908 19.1971C9.42017 18.8749 9.42017 17.6435 10.2908 17.3214L15.3427 15.452C15.6164 15.3507 15.8322 15.1349 15.9335 14.8612L17.8029 9.80929Z" fill="#157373"/>
</g>
</svg>
